<?xml version="1.0" encoding="UTF-8" standalone="no"?>
<!-- Created with Inkscape (http://www.inkscape.org/) -->

<svg
   xmlns:dc="http://purl.org/dc/elements/1.1/"
   xmlns:cc="http://creativecommons.org/ns#"
   xmlns:rdf="http://www.w3.org/1999/02/22-rdf-syntax-ns#"
   xmlns:svg="http://www.w3.org/2000/svg"
   xmlns="http://www.w3.org/2000/svg"
   xmlns:sodipodi="http://sodipodi.sourceforge.net/DTD/sodipodi-0.dtd"
   xmlns:inkscape="http://www.inkscape.org/namespaces/inkscape"
   width="64px"
   height="64px"
   id="svg3319"
   version="1.1"
   inkscape:version="0.48.4 r9939"
   sodipodi:docname="New document 14">
  <defs
     id="defs3321" />
  <sodipodi:namedview
     id="base"
     pagecolor="#ffffff"
     bordercolor="#666666"
     borderopacity="1.0"
     inkscape:pageopacity="0.0"
     inkscape:pageshadow="2"
     inkscape:zoom="5.5"
     inkscape:cx="19.130871"
     inkscape:cy="22.723926"
     inkscape:current-layer="g3360"
     showgrid="true"
     inkscape:document-units="px"
     inkscape:grid-bbox="true"
     inkscape:window-width="681"
     inkscape:window-height="748"
     inkscape:window-x="0"
     inkscape:window-y="18"
     inkscape:window-maximized="0" />
  <metadata
     id="metadata3324">
    <rdf:RDF>
      <cc:Work
         rdf:about="">
        <dc:format>image/svg+xml</dc:format>
        <dc:type
           rdf:resource="http://purl.org/dc/dcmitype/StillImage" />
        <dc:title></dc:title>
      </cc:Work>
    </rdf:RDF>
  </metadata>
  <g
     id="layer1"
     inkscape:label="Layer 1"
     inkscape:groupmode="layer">
    <g
       id="g3360"
       transform="matrix(1.0405767,0,0,1.0405767,-1.2569454,-2.7120627)">
      <path
         sodipodi:type="arc"
         style="fill:#fff6d5;fill-opacity:1;stroke:#ffdd55;stroke-width:11.44029999;stroke-linecap:round;stroke-linejoin:round;stroke-miterlimit:4;stroke-opacity:1;stroke-dasharray:none"
         id="use3422"
         sodipodi:cx="-126.15619"
         sodipodi:cy="-211.35745"
         sodipodi:rx="343.83746"
         sodipodi:ry="343.83746"
         d="m 217.68127,-211.35745 c 0,189.896185 -153.941272,343.83746 -343.83746,343.83746 -189.89619,0 -343.83746,-153.941275 -343.83746,-343.83746 0,-189.89619 153.94127,-343.83747 343.83746,-343.83747 189.896188,0 343.83746,153.94128 343.83746,343.83747 z"
         transform="matrix(0.0857094,0,0,0.0857094,43.195351,51.1826)" />
      <path
         inkscape:connector-curvature="0"
         style="fill:#ffffff;fill-opacity:1;stroke:#000000;stroke-width:0.34600046;stroke-linecap:round;stroke-linejoin:round;stroke-miterlimit:4;stroke-opacity:1;stroke-dasharray:none"
         d="m 6.6401047,46.003842 c -0.071611,-0.01713 -0.9552132,0.220313 2.6731505,-1.771336 0.359329,-0.197238 0.131619,-1.968457 0.465869,-2.728664 0.4063828,-0.924256 3.2073518,-9.299667 3.4607408,-10.049459 0.06819,-0.201772 1.896889,-2.033315 3.442237,-4.038096 1.559063,-2.022574 2.53496,-3.811783 3.346142,-4.147889 0.796476,-0.330013 1.565012,-0.343947 2.914989,-0.714255 1.155355,-0.31692 2.068744,-0.837102 2.475782,-1.016116 0.72761,-0.320002 1.751803,-0.67678 2.46245,-0.399317 0.656344,0.256259 0.401349,0.816844 0.532423,1.464159 0.692068,-0.737163 1.743366,-1.438954 2.607152,-2.182758 0.85234,-0.733944 1.516848,-1.510547 2.251198,-2.143168 0.683535,-0.588845 1.675328,-1.230439 2.476542,-1.913547 0.722108,-0.615659 1.251933,-1.277535 1.915937,-1.746854 1.213555,-0.857739 3.213288,-2.3168 4.65869,-2.662109 1.075607,-0.256963 1.984014,0.106688 2.529004,1.397607 0.174509,0.413355 -0.178537,1.238368 -0.399317,1.663819 1.944738,-1.312322 2.142004,-2.01814 3.127979,-2.329345 1.879926,-0.593364 2.772456,0.372413 2.928321,1.863477 0.123529,1.181745 -1.105762,2.394823 -2.129686,3.394188 1.686696,-1.192341 2.975811,0.604953 3.061422,1.996582 0.03865,0.628125 -0.411185,1.128211 -0.848904,1.741871 -0.572141,0.802112 -1.119252,1.748338 -1.546992,2.45095 -0.928021,1.52437 -0.626926,0.813733 -3.993163,5.32422 3.024521,-2.527369 2.918127,-3.528018 4.192819,-3.593849 0.902791,-0.04662 1.14158,0.597184 1.397611,1.464161 0.328752,1.11324 -0.905824,3.014952 -1.530714,3.993163 -1.154893,1.807885 -3.089812,3.938927 -4.459034,5.590429 -1.093314,1.318711 -2.677392,2.972127 -3.726953,4.325926 -1.028239,1.3263 -1.973007,3.441389 -3.19453,4.592141 -4.487816,4.227797 -11.413051,10.321772 -14.907812,11.580172 -5.343826,1.924218 -5.209679,0.173305 -5.09854,0.355118 0.537384,0.879107 -0.174462,-0.05661 -0.493394,-0.236707 C 16.64067,57.194708 15.596143,56.539118 14.522995,55.702602 13.397864,54.825566 12.35842,53.749651 11.319807,52.637377 8.3452517,49.451857 6.6401047,45.9681 6.6401047,46.003842 z"
         id="path3240"
         sodipodi:nodetypes="csssssssscsssssscsscssscsssssssssssc" />
      <path
         inkscape:connector-curvature="0"
         style="fill:#ffffff;fill-opacity:0.16666703;stroke:#000000;stroke-width:0.34600046;stroke-linecap:round;stroke-linejoin:round;stroke-miterlimit:4;stroke-opacity:1;stroke-dasharray:none"
         d="m 44.586201,14.882753 -7.381614,6.661523 c -2.178745,2.166438 -4.444022,4.852081 -6.461354,6.050048"
         id="path3242"
         sodipodi:nodetypes="ccc" />
      <path
         inkscape:connector-curvature="0"
         style="fill:#ffffff;fill-opacity:0.16666703;stroke:#000000;stroke-width:0.34600046;stroke-linecap:round;stroke-linejoin:round;stroke-miterlimit:4;stroke-opacity:1;stroke-dasharray:none"
         d="m 48.44626,17.944179 c -2.293745,2.578455 -4.224652,4.975489 -7.161546,7.875518 -1.790137,2.386863 -4.765967,3.874554 -5.61658,5.701238"
         id="path3244"
         sodipodi:nodetypes="ccc" />
      <path
         inkscape:connector-curvature="0"
         style="fill:#ffffff;fill-opacity:0.16666703;stroke:#000000;stroke-width:0.34600046;stroke-linecap:round;stroke-linejoin:round;stroke-miterlimit:4;stroke-opacity:1;stroke-dasharray:none"
         d="m 45.251727,29.258142 c -3.275041,4.310321 -4.525641,3.56086 -7.58701,8.984617"
         id="path3246"
         sodipodi:nodetypes="cc" />
      <path
         inkscape:connector-curvature="0"
         style="fill:#ffffff;fill-opacity:0.16666703;stroke:#000000;stroke-width:0.34600046;stroke-linecap:round;stroke-linejoin:round;stroke-miterlimit:4;stroke-opacity:1;stroke-dasharray:none"
         d="m 14.371262,32.851989 c 4.60718,-4.256863 9.310967,-6.096055 14.042626,-10.315672 l 0,0"
         id="path3248"
         sodipodi:nodetypes="ccc" />
    </g>
  </g>
</svg>
