<?xml version="1.0" encoding="UTF-8" standalone="no"?>
<!-- Created with Inkscape (http://www.inkscape.org/) -->

<svg
   xmlns:dc="http://purl.org/dc/elements/1.1/"
   xmlns:cc="http://creativecommons.org/ns#"
   xmlns:rdf="http://www.w3.org/1999/02/22-rdf-syntax-ns#"
   xmlns:svg="http://www.w3.org/2000/svg"
   xmlns="http://www.w3.org/2000/svg"
   xmlns:sodipodi="http://sodipodi.sourceforge.net/DTD/sodipodi-0.dtd"
   xmlns:inkscape="http://www.inkscape.org/namespaces/inkscape"
   width="128"
   height="128"
   id="svg3319"
   version="1.1"
   inkscape:version="0.48.4 r9939"
   sodipodi:docname="paper.svg">
  <defs
     id="defs3321" />
  <sodipodi:namedview
     id="base"
     pagecolor="#ffffff"
     bordercolor="#666666"
     borderopacity="1.0"
     inkscape:pageopacity="0.0"
     inkscape:pageshadow="2"
     inkscape:zoom="2.75"
     inkscape:cx="-32.99119"
     inkscape:cy="48.033212"
     inkscape:current-layer="g3360"
     showgrid="true"
     inkscape:document-units="px"
     inkscape:grid-bbox="true"
     inkscape:window-width="1364"
     inkscape:window-height="748"
     inkscape:window-x="0"
     inkscape:window-y="18"
     inkscape:window-maximized="0" />
  <metadata
     id="metadata3324">
    <rdf:RDF>
      <cc:Work
         rdf:about="">
        <dc:format>image/svg+xml</dc:format>
        <dc:type
           rdf:resource="http://purl.org/dc/dcmitype/StillImage" />
        <dc:title />
      </cc:Work>
    </rdf:RDF>
  </metadata>
  <g
     id="layer1"
     inkscape:label="Layer 1"
     inkscape:groupmode="layer"
     transform="translate(0,64)">
    <g
       id="g3360"
       transform="matrix(1.0405767,0,0,1.0405767,-1.2569454,-2.7120627)">
      <path
         sodipodi:type="arc"
         style="fill:#fff6d5;fill-opacity:1;stroke:#ffdd55;stroke-width:11.44029999;stroke-linecap:round;stroke-linejoin:round;stroke-miterlimit:4;stroke-opacity:1;stroke-dasharray:none"
         id="use3422"
         sodipodi:cx="-126.15619"
         sodipodi:cy="-211.35745"
         sodipodi:rx="343.83746"
         sodipodi:ry="343.83746"
         d="m 217.68127,-211.35745 a 343.83746,343.83746 0 1 1 -687.67492,0 343.83746,343.83746 0 1 1 687.67492,0 z"
         transform="matrix(0.17318411,0,0,0.17318411,84.808276,39.093581)" />
      <path
         inkscape:connector-curvature="0"
         style="fill:#ffffff;fill-opacity:1;stroke:#000000;stroke-width:0.69912732;stroke-linecap:round;stroke-linejoin:round;stroke-miterlimit:4;stroke-opacity:1;stroke-dasharray:none"
         d="m 10.944877,28.629402 c -0.144697,-0.03461 -1.9301008,0.445163 5.401358,-3.579156 0.726059,-0.398538 0.265949,-3.977457 0.941333,-5.513528 0.821136,-1.867549 6.480764,-18.79087423 6.992761,-20.30590126 0.137784,-0.40769974 3.832847,-4.10850904 6.955371,-8.15936234 3.150238,-4.0868054 5.122131,-7.7020754 6.761203,-8.3812094 1.609357,-0.666823 3.162258,-0.694978 5.890016,-1.443221 2.334506,-0.640368 4.180097,-1.691446 5.002557,-2.053161 1.470206,-0.646595 3.539686,-1.367499 4.975617,-0.806858 1.326207,0.517796 0.810965,1.650512 1.075812,2.958474 1.39839,-1.489509 3.522639,-2.907545 5.268002,-4.410473 1.722235,-1.483004 3.064938,-3.052206 4.548763,-4.330477 1.381148,-1.189818 3.385162,-2.486221 5.004092,-3.866507 1.459089,-1.243998 2.529651,-2.581382 3.871335,-3.529687 2.452105,-1.733144 6.492758,-4.681317 9.413333,-5.379047 2.173367,-0.519219 4.008891,0.215573 5.110096,2.823999 0.352612,0.835224 -0.360751,2.502242 -0.806859,3.361907 3.929531,-2.651673 4.328126,-4.077846 6.320384,-4.706666 3.798571,-1.198949 5.602014,0.752496 5.916955,3.765335 0.249602,2.387829 -2.234299,4.838971 -4.303236,6.858284 3.408132,-2.40924 6.01291,1.222366 6.1859,4.034286 0.0781,1.269187 -0.83084,2.279659 -1.715294,3.519619 -1.156066,1.620744 -2.261557,3.532685 -3.125847,4.95238 -1.875156,3.080137 -1.266764,1.644226 -8.068571,10.7581003 6.111337,-5.1067927 5.896357,-7.1287003 8.471995,-7.2617183 1.824177,-0.0942 2.306673,1.206668 2.824008,2.9584784 0.664279,2.2494087 -1.830305,6.0920012 -3.092955,8.0685708 -2.333573,3.653006 -6.243263,7.9589818 -9.009908,11.2960008 -2.209147,2.664583 -5.409929,6.005469 -7.530668,8.740951 -2.077656,2.679917 -3.986651,6.953658 -6.454856,9.278863 -9.068065,8.542672 -23.06117,20.856136 -30.122672,23.398854 -10.797715,3.888068 -10.526658,0.35018 -10.302091,0.717551 1.085836,1.77632 -0.352518,-0.114386 -0.99695,-0.47829 -1.193878,-0.674168 -3.304445,-1.99885 -5.472844,-3.689112 -2.273436,-1.772136 -4.373733,-3.946126 -6.472351,-6.193582 -6.010375,-6.436651 -9.455789,-13.475918 -9.455789,-13.403697 z"
         id="path3240"
         sodipodi:nodetypes="csssssssscsssssscsscssscsssssssssssc" />
      <path
         inkscape:connector-curvature="0"
         style="fill:#ffffff;fill-opacity:0.16666703;stroke:#000000;stroke-width:0.69912732;stroke-linecap:round;stroke-linejoin:round;stroke-miterlimit:4;stroke-opacity:1;stroke-dasharray:none"
         d="M 87.618623,-34.25376 72.70336,-20.79351 c -4.402364,4.377497 -8.979575,9.804098 -13.055789,12.2247053"
         id="path3242"
         sodipodi:nodetypes="ccc" />
      <path
         inkscape:connector-curvature="0"
         style="fill:#ffffff;fill-opacity:0.16666703;stroke:#000000;stroke-width:0.69912732;stroke-linecap:round;stroke-linejoin:round;stroke-miterlimit:4;stroke-opacity:1;stroke-dasharray:none"
         d="m 95.418244,-28.067853 c -4.634733,5.210017 -8.536316,10.053455 -14.470594,15.913243 -3.617144,4.8228872 -9.630096,7.8289103 -11.348841,11.51990147"
         id="path3244"
         sodipodi:nodetypes="ccc" />
      <path
         inkscape:connector-curvature="0"
         style="fill:#ffffff;fill-opacity:0.16666703;stroke:#000000;stroke-width:0.69912732;stroke-linecap:round;stroke-linejoin:round;stroke-miterlimit:4;stroke-opacity:1;stroke-dasharray:none"
         d="M 88.963382,-5.2069 C 82.345846,3.5025192 79.818888,1.988161 73.633097,12.947385"
         id="path3246"
         sodipodi:nodetypes="cc" />
      <path
         inkscape:connector-curvature="0"
         style="fill:#ffffff;fill-opacity:0.16666703;stroke:#000000;stroke-width:0.69912732;stroke-linecap:round;stroke-linejoin:round;stroke-miterlimit:4;stroke-opacity:1;stroke-dasharray:none"
         d="m 26.566425,2.0548144 c 9.309252,-8.6014021 18.813707,-12.3176664 28.37448,-20.8438104 l 0,0"
         id="path3248"
         sodipodi:nodetypes="ccc" />
    </g>
  </g>
</svg>
