<?xml version="1.0" encoding="UTF-8" standalone="no"?>
<!-- Created with Inkscape (http://www.inkscape.org/) -->

<svg
   xmlns:dc="http://purl.org/dc/elements/1.1/"
   xmlns:cc="http://creativecommons.org/ns#"
   xmlns:rdf="http://www.w3.org/1999/02/22-rdf-syntax-ns#"
   xmlns:svg="http://www.w3.org/2000/svg"
   xmlns="http://www.w3.org/2000/svg"
   xmlns:sodipodi="http://sodipodi.sourceforge.net/DTD/sodipodi-0.dtd"
   xmlns:inkscape="http://www.inkscape.org/namespaces/inkscape"
   width="64px"
   height="64px"
   id="svg3207"
   version="1.1"
   inkscape:version="0.48.4 r9939"
   sodipodi:docname="New document 9">
  <defs
     id="defs3209" />
  <sodipodi:namedview
     id="base"
     pagecolor="#ffffff"
     bordercolor="#666666"
     borderopacity="1.0"
     inkscape:pageopacity="0.0"
     inkscape:pageshadow="2"
     inkscape:zoom="2.75"
     inkscape:cx="-17.691081"
     inkscape:cy="69.535009"
     inkscape:current-layer="layer1"
     showgrid="true"
     inkscape:document-units="px"
     inkscape:grid-bbox="true"
     inkscape:window-width="681"
     inkscape:window-height="748"
     inkscape:window-x="0"
     inkscape:window-y="18"
     inkscape:window-maximized="0" />
  <metadata
     id="metadata3212">
    <rdf:RDF>
      <cc:Work
         rdf:about="">
        <dc:format>image/svg+xml</dc:format>
        <dc:type
           rdf:resource="http://purl.org/dc/dcmitype/StillImage" />
        <dc:title></dc:title>
      </cc:Work>
    </rdf:RDF>
  </metadata>
  <g
     id="layer1"
     inkscape:label="Layer 1"
     inkscape:groupmode="layer">
    <path
       transform="matrix(0.0894325,0,0,0.0894325,43.646101,51.265862)"
       d="m 217.68127,-211.35745 a 343.83746,343.83746 0 1 1 -687.67492,0 343.83746,343.83746 0 1 1 687.67492,0 z"
       sodipodi:ry="343.83746"
       sodipodi:rx="343.83746"
       sodipodi:cy="-211.35745"
       sodipodi:cx="-126.15619"
       id="use3420"
       style="fill:#ffd5d5;fill-opacity:1;stroke:#ff8080;stroke-width:11.44029999;stroke-linecap:round;stroke-linejoin:round;stroke-miterlimit:4;stroke-opacity:1;stroke-dasharray:none"
       sodipodi:type="arc" />
    <path
       sodipodi:nodetypes="sssssssssssssssscsssssssssssssss"
       id="path2432"
       d="m 4.0853294,42.555333 c -0.00442,-0.386416 -0.3420267,-0.09727 0.9456983,-0.64386 2.7679195,-1.174852 4.6977769,-3.170179 6.5496513,-3.865206 1.278834,-0.479957 3.171771,-0.636538 4.361088,-1.308328 1.384413,-0.781988 3.126144,-2.186788 3.924976,-3.561552 0.349992,-0.602326 1.471007,-5.918638 2.107861,-8.358753 0.117552,-0.450321 1.236513,-3.139962 2.107857,-4.506452 1.138164,-1.784924 3.458834,-4.045211 4.724512,-5.742095 0.415963,-0.557685 0.743687,-1.470539 1.23564,-1.962495 0.983907,-0.983906 2.615575,-2.000538 3.924981,-2.471282 0.641379,-0.2305844 1.33228,-0.3322609 1.962489,-0.07268 0.229881,0.0947 0.553393,0.471169 0.79953,0.43611 1.728649,-0.246231 5.154545,-0.5107415 7.050424,0.436108 0.871764,0.435379 1.704645,1.584184 2.10786,2.471284 0.353829,0.778444 -0.591405,1.860164 -0.263056,2.327069 0.492687,0.700571 3.61851,4.093371 4.115347,5.522887 0.193418,0.556498 -0.02598,0.92002 0.145379,1.483694 0.45538,0.574131 1.191857,1.782021 1.526378,2.586654 0.395923,0.952307 0.607579,2.330188 0.799533,3.343499 0.2623,1.384654 0.997348,3.28497 0.654161,4.651826 -0.269765,1.074447 -1.633366,1.656986 -2.035167,2.689338 -0.07162,0.18401 -0.226259,0.802865 -0.36343,0.944903 -2.071368,2.144867 -5.253814,3.826922 -8.576798,6.97774 -1.6118,1.528282 -3.182477,3.292384 -5.087936,4.433765 -0.887316,0.531511 -2.620118,1.316049 -3.561558,1.744437 -1.681519,0.765161 -3.21453,2.123097 -5.087931,2.907392 -1.14569,0.479641 -4.298917,1.601307 -5.960152,2.398595 -3.14337,1.508627 -4.044153,4.752756 -5.4374,3.004891 0,0 -1.165151,-0.577858 -2.586972,-1.757382 C 11.783792,54.68729 8.7518482,51.348331 6.6320247,47.93485 5.9817315,46.887703 5.3365738,45.766998 4.8115762,44.66235 4.4655561,43.934293 4.0927564,43.193466 4.0853294,42.555338 z"
       style="fill:#ffffff;fill-opacity:1;stroke:#000000;stroke-width:0.37788036;stroke-linecap:round;stroke-linejoin:round;stroke-miterlimit:4;stroke-opacity:1;stroke-dasharray:none"
       inkscape:connector-curvature="0" />
    <path
       sodipodi:nodetypes="czc"
       id="path3226"
       d="m 37.244335,13.840914 c 0.574439,0.215417 3.112086,-0.641982 4.576178,-0.161137 1.45425,0.477623 2.016195,2.648622 2.868169,3.190436"
       style="fill:#ffffff;fill-opacity:0.09615383;stroke:#000000;stroke-width:0.42221203;stroke-linecap:round;stroke-linejoin:round;stroke-miterlimit:4;stroke-opacity:1;stroke-dasharray:none"
       inkscape:connector-curvature="0" />
    <path
       sodipodi:nodetypes="czcc"
       id="path3228"
       d="m 43.499705,18.689322 c 0.761439,0.533007 2.652501,0.353632 3.509549,0.943746 0.857049,0.590108 1.143905,2.22778 1.88749,3.155644 l 0,0"
       style="fill:#ffffff;fill-opacity:0.09615383;stroke:#000000;stroke-width:0.38638508;stroke-linecap:round;stroke-linejoin:round;stroke-miterlimit:4;stroke-opacity:1;stroke-dasharray:none"
       inkscape:connector-curvature="0" />
    <path
       sodipodi:nodetypes="cc"
       id="path3224"
       d="M 45.361865,15.455049 C 44.844724,15.17413 43.966093,14.89321 43.208155,14.612295"
       style="fill:#ffffff;fill-opacity:0.09615383;stroke:#000000;stroke-width:0.4089345;stroke-linecap:round;stroke-linejoin:round;stroke-miterlimit:4;stroke-opacity:1;stroke-dasharray:none"
       inkscape:connector-curvature="0" />
    <path
       sodipodi:nodetypes="cc"
       id="path3230"
       d="M 49.520963,22.515327 C 48.959588,21.822791 48.5685,21.555974 48.13281,21.177651"
       style="fill:#ffffff;fill-opacity:0.09615383;stroke:#000000;stroke-width:0.33066705;stroke-linecap:round;stroke-linejoin:round;stroke-miterlimit:4;stroke-opacity:1;stroke-dasharray:none"
       inkscape:connector-curvature="0" />
    <path
       sodipodi:nodetypes="czcc"
       id="path3232"
       d="m 50.905944,25.701799 c -0.09674,0.193475 0.679818,1.134225 0.836541,1.647735 0.156726,0.513509 -0.05186,1.489793 0,1.749135 l 0,0"
       style="fill:#ffffff;fill-opacity:0.09615383;stroke:#000000;stroke-width:0.33211595;stroke-linecap:round;stroke-linejoin:round;stroke-miterlimit:4;stroke-opacity:1;stroke-dasharray:none"
       inkscape:connector-curvature="0" />
  </g>
</svg>
