<?xml version="1.0" encoding="UTF-8" standalone="no"?>
<!-- Created with Inkscape (http://www.inkscape.org/) -->

<svg
   xmlns:dc="http://purl.org/dc/elements/1.1/"
   xmlns:cc="http://creativecommons.org/ns#"
   xmlns:rdf="http://www.w3.org/1999/02/22-rdf-syntax-ns#"
   xmlns:svg="http://www.w3.org/2000/svg"
   xmlns="http://www.w3.org/2000/svg"
   xmlns:sodipodi="http://sodipodi.sourceforge.net/DTD/sodipodi-0.dtd"
   xmlns:inkscape="http://www.inkscape.org/namespaces/inkscape"
   width="128"
   height="128"
   id="svg3207"
   version="1.1"
   inkscape:version="0.48.4 r9939"
   sodipodi:docname="rock.svg">
  <defs
     id="defs3209" />
  <sodipodi:namedview
     id="base"
     pagecolor="#ffffff"
     bordercolor="#666666"
     borderopacity="1.0"
     inkscape:pageopacity="0.0"
     inkscape:pageshadow="2"
     inkscape:zoom="2.75"
     inkscape:cx="-17.691081"
     inkscape:cy="69.535009"
     inkscape:current-layer="layer1"
     showgrid="true"
     inkscape:document-units="px"
     inkscape:grid-bbox="true"
     inkscape:window-width="1364"
     inkscape:window-height="748"
     inkscape:window-x="0"
     inkscape:window-y="18"
     inkscape:window-maximized="0" />
  <metadata
     id="metadata3212">
    <rdf:RDF>
      <cc:Work
         rdf:about="">
        <dc:format>image/svg+xml</dc:format>
        <dc:type
           rdf:resource="http://purl.org/dc/dcmitype/StillImage" />
        <dc:title />
      </cc:Work>
    </rdf:RDF>
  </metadata>
  <g
     id="layer1"
     inkscape:label="Layer 1"
     inkscape:groupmode="layer"
     transform="translate(0,64)">
    <path
       transform="matrix(0.18045272,0,0,0.18150085,86.947047,38.543376)"
       d="m 217.68127,-211.35745 a 343.83746,343.83746 0 1 1 -687.67492,0 343.83746,343.83746 0 1 1 687.67492,0 z"
       sodipodi:ry="343.83746"
       sodipodi:rx="343.83746"
       sodipodi:cy="-211.35745"
       sodipodi:cx="-126.15619"
       id="use3420"
       style="fill:#ffd5d5;fill-opacity:1;stroke:#ff8080;stroke-width:11.44029999;stroke-linecap:round;stroke-linejoin:round;stroke-miterlimit:4;stroke-opacity:1;stroke-dasharray:none"
       sodipodi:type="arc" />
    <path
       sodipodi:nodetypes="sssssssssssssssscsssssssssssssss"
       id="path2432"
       d="m 7.1231708,20.865592 c -0.00892,-0.784221 -0.6901255,-0.197407 1.9081858,-1.306697 5.5849784,-2.38433 9.4789544,-6.433793 13.2155804,-7.844331 2.580371,-0.97406 6.399851,-1.291837 8.799599,-2.6552166 2.793404,-1.5870236 6.307788,-4.4380274 7.919634,-7.228074 0.706197,-1.22240436 2.968129,-12.0117164 4.253143,-16.9638644 0.237191,-0.913914 2.494978,-6.372468 4.253135,-9.145723 2.296534,-3.622455 6.979074,-8.209647 9.5329,-11.653427 0.83931,-1.131807 1.500577,-2.98442 2.493216,-3.982831 1.985282,-1.996811 5.277585,-4.060038 7.919644,-5.0154 1.294144,-0.467965 2.688212,-0.674315 3.959818,-0.147503 0.463843,0.192192 1.116611,0.956225 1.613254,0.885074 3.487988,-0.499719 10.4006,-1.036536 14.226017,0.885069 1.759004,0.88359 3.439553,3.215059 4.253141,5.015405 0.71394,1.579831 -1.193309,3.775153 -0.530782,4.722724 0.994121,1.42179 7.30126,8.307386 8.303755,11.20855 0.390269,1.129398 -0.05242,1.867156 0.293339,3.011117 0.91884,1.165184 2.40487,3.616564 3.07985,5.249545 0.79888,1.932682 1.22595,4.7290539 1.61326,6.7855414 0.52926,2.810118 2.01241,6.66675819 1.31994,9.4407557 -0.54432,2.1805613 -3.29573,3.3628085 -4.10647,5.4579391 -0.14451,0.3734433 -0.45653,1.6293929 -0.73331,1.9176552 -4.179507,4.3529496 -10.600898,7.7666356 -17.305859,14.1611356 -3.252215,3.101607 -6.421454,6.681805 -10.2662,8.998207 -1.790385,1.078687 -5.286752,2.670886 -7.186345,3.540288 -3.392891,1.552873 -6.486129,4.308768 -10.26619,5.900474 -2.311719,0.973418 -8.674153,3.249809 -12.026116,4.867884 -6.342545,3.061718 -8.160103,9.64559 -10.971331,6.098345 0,0 -2.350988,-1.172747 -5.219871,-3.566559 C 22.656769,45.487072 16.539054,38.710745 12.261774,31.783177 10.949642,29.65802 9.6478733,27.38358 8.5885576,25.141726 7.8903745,23.664154 7.1381567,22.160666 7.1231708,20.865602 z"
       style="fill:#ffffff;fill-opacity:1;stroke:#000000;stroke-width:0.7646805;stroke-linecap:round;stroke-linejoin:round;stroke-miterlimit:4;stroke-opacity:1;stroke-dasharray:none"
       inkscape:connector-curvature="0" />
    <path
       sodipodi:nodetypes="czc"
       id="path3226"
       d="m 74.029862,-37.409549 c 1.159077,0.437183 6.279422,-1.302885 9.233599,-0.327023 2.934317,0.969323 4.068184,5.375307 5.787257,6.474904"
       style="fill:#ffffff;fill-opacity:0.09615383;stroke:#000000;stroke-width:0.85439026;stroke-linecap:round;stroke-linejoin:round;stroke-miterlimit:4;stroke-opacity:1;stroke-dasharray:none"
       inkscape:connector-curvature="0" />
    <path
       sodipodi:nodetypes="czcc"
       id="path3228"
       d="m 86.651656,-27.569835 c 1.536396,1.081723 5.352092,0.717686 7.081404,1.915307 1.729313,1.197608 2.308118,4.521219 3.808489,6.404295 l 0,0"
       style="fill:#ffffff;fill-opacity:0.09615383;stroke:#000000;stroke-width:0.78189069;stroke-linecap:round;stroke-linejoin:round;stroke-miterlimit:4;stroke-opacity:1;stroke-dasharray:none"
       inkscape:connector-curvature="0" />
    <path
       sodipodi:nodetypes="cc"
       id="path3224"
       d="m 90.409035,-34.133705 c -1.043463,-0.570118 -2.816323,-1.140237 -4.345655,-1.710347"
       style="fill:#ffffff;fill-opacity:0.09615383;stroke:#000000;stroke-width:0.8275218;stroke-linecap:round;stroke-linejoin:round;stroke-miterlimit:4;stroke-opacity:1;stroke-dasharray:none"
       inkscape:connector-curvature="0" />
    <path
       sodipodi:nodetypes="cc"
       id="path3230"
       d="m 98.801069,-19.805061 c -1.132717,-1.405483 -1.921836,-1.946981 -2.800951,-2.714777"
       style="fill:#ffffff;fill-opacity:0.09615383;stroke:#000000;stroke-width:0.66913939;stroke-linecap:round;stroke-linejoin:round;stroke-miterlimit:4;stroke-opacity:1;stroke-dasharray:none"
       inkscape:connector-curvature="0" />
    <path
       sodipodi:nodetypes="czcc"
       id="path3232"
       d="m 101.59562,-13.338202 c -0.1952,0.392653 1.3717,2.301879 1.68793,3.3440341 0.31624,1.0421527 -0.10464,3.0234948 0,3.5498224 l 0,0"
       style="fill:#ffffff;fill-opacity:0.09615383;stroke:#000000;stroke-width:0.6720714;stroke-linecap:round;stroke-linejoin:round;stroke-miterlimit:4;stroke-opacity:1;stroke-dasharray:none"
       inkscape:connector-curvature="0" />
  </g>
</svg>
