<?xml version="1.0" encoding="UTF-8" standalone="no"?>
<!-- Created with Inkscape (http://www.inkscape.org/) -->

<svg
   xmlns:dc="http://purl.org/dc/elements/1.1/"
   xmlns:cc="http://creativecommons.org/ns#"
   xmlns:rdf="http://www.w3.org/1999/02/22-rdf-syntax-ns#"
   xmlns:svg="http://www.w3.org/2000/svg"
   xmlns="http://www.w3.org/2000/svg"
   xmlns:sodipodi="http://sodipodi.sourceforge.net/DTD/sodipodi-0.dtd"
   xmlns:inkscape="http://www.inkscape.org/namespaces/inkscape"
   width="128"
   height="128"
   id="svg3425"
   version="1.1"
   inkscape:version="0.48.4 r9939"
   sodipodi:docname="scissors.png">
  <defs
     id="defs3427" />
  <sodipodi:namedview
     id="base"
     pagecolor="#ffffff"
     bordercolor="#666666"
     borderopacity="1.0"
     inkscape:pageopacity="0.0"
     inkscape:pageshadow="2"
     inkscape:zoom="2.75"
     inkscape:cx="-58.149317"
     inkscape:cy="61.595498"
     inkscape:current-layer="g3404"
     showgrid="true"
     inkscape:document-units="px"
     inkscape:grid-bbox="true"
     inkscape:window-width="1364"
     inkscape:window-height="748"
     inkscape:window-x="0"
     inkscape:window-y="18"
     inkscape:window-maximized="0" />
  <metadata
     id="metadata3430">
    <rdf:RDF>
      <cc:Work
         rdf:about="">
        <dc:format>image/svg+xml</dc:format>
        <dc:type
           rdf:resource="http://purl.org/dc/dcmitype/StillImage" />
        <dc:title></dc:title>
      </cc:Work>
    </rdf:RDF>
  </metadata>
  <g
     id="layer1"
     inkscape:label="Layer 1"
     inkscape:groupmode="layer"
     transform="translate(0,64)">
    <g
       transform="matrix(0.10059349,0,0,0.10059349,-64.350321,5.8833772)"
       id="g3404">
      <path
         sodipodi:type="arc"
         style="fill:#f6d5ff;fill-opacity:1;stroke:#e580ff;stroke-width:11.44029999;stroke-linecap:round;stroke-linejoin:round;stroke-miterlimit:4;stroke-opacity:1;stroke-dasharray:none"
         id="use3424"
         sodipodi:cx="-126.15619"
         sodipodi:cy="-211.35745"
         sodipodi:rx="343.83746"
         sodipodi:ry="343.83746"
         d="m 217.68127,-211.35745 a 343.83746,343.83746 0 1 1 -687.67492,0 343.83746,343.83746 0 1 1 687.67492,0 z"
         transform="matrix(1.7893135,0,0,1.7893135,1509.1392,315.66447)" />
      <path
         inkscape:connector-curvature="0"
         style="fill:#ffffff;fill-opacity:1;stroke:#000000;stroke-width:7.22328329;stroke-linecap:round;stroke-linejoin:round;stroke-miterlimit:4;stroke-opacity:1;stroke-dasharray:none"
         d="m 746.61342,210.23517 c 1.11602,-2.45525 40.02162,-25.54603 92.83147,-56.33709 8.96532,-5.22728 143.65487,-202.825979 233.41731,-294.55043 12.6723,-12.94931 17.0294,-34.8709 29.8187,-54.2326 10.3871,-15.725 29.6454,-28.81682 36.872,-41.63523 25.4518,-45.14607 49.8821,-110.29383 75.027,-155.61156 16.2703,-29.32352 41.1451,-66.57349 59.7437,-94.47844 16.0973,-24.15208 44.2025,-69.00336 63.9119,-90.31027 21.4349,-23.17214 65.1366,-27.33918 72.2482,18.06205 4.1278,26.35238 -31.3499,79.57286 -45.8499,112.5405 -13.0008,29.55912 -31.541,68.48334 -43.071,98.64661 -7.7017,20.14819 -13.3681,44.04478 -22.0323,68.15158 -7.9077,22.00166 -19.2406,44.17839 -18.2599,63.84035 0.6134,12.30021 4.2033,28.52382 13.8938,36.12411 11.4338,8.96748 85.1741,-61.85685 137.5495,-84.75271 25.5768,-11.18089 50.5066,-29.79944 98.6467,-51.4074 19.3078,-8.66638 42.1445,-25.38968 61.133,-34.73471 18.3404,-9.02607 64.5263,-26.22303 84.7529,-29.17716 26.8261,-3.91802 54.3268,30.03705 43.071,59.74372 -4.0116,10.58746 -65.2977,45.51925 -93.0891,65.30127 -37.6989,26.83439 -91.4346,58.50402 -125.045,90.31028 -42.5042,40.2225 -133.1241,69.445203 -144.4965,91.699665 -1.7893,3.501531 3.4019,9.413403 6.9469,11.115102 6.432,3.087601 16.6715,-4.399483 23.6197,-2.778766 17.9019,4.175743 39.6678,19.199736 51.4074,33.345327 33.983,40.947659 -9.0534,74.957903 -16.6727,95.867833 -2.7226,7.471547 19.9322,20.212955 22.2302,44.460429 2.1436,22.61965 -7.8422,46.74561 -23.6195,59.74374 -19.313,15.91097 -56.2187,22.46709 -72.2483,41.68166 -3.9694,4.75811 -2.1602,15.5166 -6.9469,19.45144 -56.0302,46.05894 -100.8917,87.59715 -144.4965,119.48744 -42.9064,31.37956 20.4524,-11.08943 0.261,0.56805 -25.1263,14.50669 -40.8564,28.081 -120.9459,63.94258 -48.6731,21.79429 -101.49448,41.29019 -101.49448,41.29019 l -55.75497,-37.09949 -22.82855,-18.053 -48.22511,-46.53097 -10.85611,-10.9905 -41.41889,-50.63647 -23.41722,-36.53523 -17.95037,-30.10891 z"
         id="path3275"
         sodipodi:nodetypes="cssssssssssssssssssssssssssssssssccccccccc" />
      <path
         inkscape:connector-curvature="0"
         style="fill:#ffffff;fill-opacity:0.06089753;stroke:#000000;stroke-width:7.22328329;stroke-linecap:round;stroke-linejoin:round;stroke-miterlimit:4;stroke-opacity:1;stroke-dasharray:none"
         d="m 1424.3775,70.534752 c -13.9196,-20.073225 -41.5351,-28.072109 -43.071,-38.902878"
         id="path3277"
         sodipodi:nodetypes="cc" />
      <path
         inkscape:connector-curvature="0"
         style="fill:#ffffff;fill-opacity:0.06089753;stroke:#000000;stroke-width:7.22328329;stroke-linecap:round;stroke-linejoin:round;stroke-miterlimit:4;stroke-opacity:1;stroke-dasharray:none"
         d="m 1366.0234,194.19036 19.4513,-16.67267 25.009,-6.94694"
         id="path3279" />
    </g>
  </g>
</svg>
